<svg xmlns="http://www.w3.org/2000/svg" xmlns:xlink="http://www.w3.org/1999/xlink" version="1.1" width="256" height="256" viewBox="0 0 100 100">
  <g transform="translate(-5, 0)">
    <defs id="SvgjsDefs1230"/>
    <g id="SvgjsG1232" featureKey="inlineSymbolFeature-0" fill="#000">
      <path xmlns="http://www.w3.org/2000/svg" d="M75.04,77.948c0-8.529-8.761-27.961-12.814-36.494v-7.408c0.499-0.113,0.998-0.249,1.494-0.408  c8.102-2.61,12.409-10.616,10.779-14.864c-0.447-1.165-1.367-2.108-2.63-2.813c0.429-1.087,1.202-3.342,1.497-6.109  c0.416-3.91-5.015-3.828-5.015-3.828s2.036,0.31,1.903,2.461c-0.106,1.709-4.341,4.804-6.073,6.002  c-2.293,0.082-4.787,0.512-7.302,1.322c-2.515,0.81-4.754,1.905-6.598,3.157c-2.169,0.06-7.586,0.075-8.835-1.198  c-1.573-1.6-0.197-3.01-0.197-3.01s-4.292,3.051-1.296,5.862c2.119,1.988,4.262,3.303,5.339,3.905  c-0.504,1.274-0.577,2.538-0.13,3.703c1.261,3.286,6.832,6.286,13.04,6.268v6.959c-4.052,8.532-12.814,27.966-12.814,36.495  c0,2.725,0.402,4.936,1.128,6.725c-3.253,2.771-9.498,7.044-14.76,4.35c-4.332-2.218-5.251-5.982-4.272-8.54  c0.525-1.373,1.801-2.73,3.805-2.424c1.468,0.224,2.52,0.754,3.127,1.574c0.956,1.29,0.576,2.958,0.572,2.974l0.002-0.005  c0,0-0.164,0.942,0.734,1.091c1.229,0.202,1.382-0.65,1.382-0.65c0.025-0.101,0.596-2.493-0.878-4.505  c-0.952-1.3-2.493-2.12-4.582-2.44c-2.745-0.419-5.182,1.044-6.209,3.727c-1.271,3.318-0.166,8.155,5.26,10.934  c6.395,3.274,14.145-0.346,18.036-2.669c1.284,1.29,2.885,2.155,4.703,2.711c-0.511,0.332-0.817,0.742-0.817,1.188  c0,1.098,1.835,1.988,4.098,1.988c1.482,0,2.776-0.383,3.496-0.954c0.72,0.571,2.014,0.954,3.495,0.954  c2.264,0,4.098-0.89,4.098-1.988c0-0.446-0.306-0.856-0.817-1.188C71.77,89.34,75.04,85.733,75.04,77.948z"/>
    </g>
  </g>
</svg>
	